# xmcd
#
# Track frame offsets:
#	150
#	16902
#	32801
#	54727
#	72197
#	97058
#	124382
#	140081
#	168174
#	182671
#	201223
#	217778
#	240297
#	271690
#
# Disc length: 4069 seconds
#
# Revision: 1
# Processed by: cddbd v1.5PL3 Copyright (c) Steve Scherf et al.
# Submitted via: CDex 1.50Beta5
#
DISCID=c30fe30e
DTITLE=Soul Pleasure 1 - Soul Pleasure 1
DYEAR=1900
DGENRE=Blues
TTITLE0=Joey Negro feat.Taka Boom/Saturday
TTITLE1=Jr.Sanchez feat.Dajae/B With U
TTITLE2=A.T.F.C.presents Onephatdeeva feat.Lisa Millet/Bad Habit
TTITLE3=Bobby D'ambrosio Presents With Kelli Sae/Here I Am
TTITLE4=Mateo And Matost/He Real Thing
TTITLE5=Paul Johnson/Get Get Down
TTITLE6=Barbara Tucker Feat. Darryl D'bnneau/Stop Playing With My Mind
TTITLE7=DJ Disciple Feat. Taka Boom/Wannabe
TTITLE8=Czr Feat. Delano/I Want You
TTITLE9=DJ Rhythm/Live From Paris
TTITLE10=Jamestown Feat. Lisa Millett/Lift Me Up
TTITLE11=Sunkids Feat. Chance/Rise Up
TTITLE12=Weird Science/Feel The Need
TTITLE13=Ministers De-La Funk Feat. Jocelyn Brown/Believe
EXTD=
EXTT0=
EXTT1=
EXTT2=
EXTT3=
EXTT4=
EXTT5=
EXTT6=
EXTT7=
EXTT8=
EXTT9=
EXTT10=
EXTT11=
EXTT12=
EXTT13=
PLAYORDER=
